<svg xmlns="http://www.w3.org/2000/svg" fill="none" viewBox="0 0 25 24"><g stroke="#fff" stroke-linecap="round" stroke-linejoin="round" stroke-width="2" clip-path="url(#clip0)"><path d="M23.4 6.42a2.78 2.78 0 00-1.93-2C19.75 4 12.87 4 12.87 4s-6.88 0-8.6.46a2.78 2.78 0 00-1.94 2 29 29 0 00-.46 5.29 29 29 0 00.46 5.33A2.78 2.78 0 004.27 19c1.72.46 8.6.46 8.6.46s6.88 0 8.6-.46a2.78 2.78 0 001.94-2 29 29 0 00.46-5.25 29 29 0 00-.46-5.33v0z"/><path d="M10.62 15.02l5.75-3.27-5.75-3.27v6.54z"/></g><defs><clipPath id="clip0"><path fill="#fff" d="M0 0h24v24H0z" transform="translate(.865)"/></clipPath></defs></svg>