<svg width="25" height="24" viewBox="0 0 25 24" fill="none" xmlns="http://www.w3.org/2000/svg">
<g clip-path="url(#clip0)">
<path d="M23.4051 6.42C23.2863 5.94541 23.0444 5.51057 22.7038 5.15941C22.3631 4.80824 21.9359 4.55318 21.4651 4.42C19.7451 4 12.8651 4 12.8651 4C12.8651 4 5.9851 4 4.2651 4.46C3.79435 4.59318 3.36708 4.84824 3.02645 5.19941C2.68582 5.55057 2.44389 5.98541 2.3251 6.46C2.01032 8.20556 1.85634 9.97631 1.8651 11.75C1.85388 13.537 2.00787 15.3213 2.3251 17.08C2.45606 17.5398 2.70341 17.9581 3.04325 18.2945C3.38309 18.6308 3.80392 18.8738 4.2651 19C5.9851 19.46 12.8651 19.46 12.8651 19.46C12.8651 19.46 19.7451 19.46 21.4651 19C21.9359 18.8668 22.3631 18.6118 22.7038 18.2606C23.0444 17.9094 23.2863 17.4746 23.4051 17C23.7175 15.2676 23.8714 13.5103 23.8651 11.75C23.8763 9.96295 23.7223 8.1787 23.4051 6.42V6.42Z" stroke="white" stroke-width="2" stroke-linecap="round" stroke-linejoin="round"/>
<path d="M10.6151 15.02L16.3651 11.75L10.6151 8.47998V15.02Z" stroke="white" stroke-width="2" stroke-linecap="round" stroke-linejoin="round"/>
</g>
<defs>
<clipPath id="clip0">
<rect width="24" height="24" fill="white" transform="translate(0.865112)"/>
</clipPath>
</defs>
</svg>
