<svg width="25" height="24" viewBox="0 0 25 24" fill="none" xmlns="http://www.w3.org/2000/svg">
<path d="M17.8651 2H7.86511C5.10369 2 2.86511 4.23858 2.86511 7V17C2.86511 19.7614 5.10369 22 7.86511 22H17.8651C20.6265 22 22.8651 19.7614 22.8651 17V7C22.8651 4.23858 20.6265 2 17.8651 2Z" stroke="white" stroke-width="2" stroke-linecap="round" stroke-linejoin="round"/>
<path d="M16.8651 11.3701C16.9885 12.2023 16.8464 13.0523 16.4589 13.7991C16.0714 14.5459 15.4583 15.1515 14.7068 15.5297C13.9552 15.908 13.1036 16.0397 12.2729 15.906C11.4422 15.7723 10.6749 15.3801 10.08 14.7852C9.48504 14.1903 9.09286 13.4229 8.95919 12.5923C8.82553 11.7616 8.95719 10.91 9.33545 10.1584C9.71371 9.40691 10.3193 8.7938 11.0661 8.4063C11.8129 8.0188 12.6629 7.87665 13.4951 8.00006C14.344 8.12594 15.13 8.52152 15.7368 9.12836C16.3437 9.73521 16.7392 10.5211 16.8651 11.3701Z" stroke="white" stroke-width="2" stroke-linecap="round" stroke-linejoin="round"/>
<path d="M18.3651 6.5H18.3751" stroke="white" stroke-width="2" stroke-linecap="round" stroke-linejoin="round"/>
</svg>
