<svg width="25" height="24" viewBox="0 0 25 24" fill="none" xmlns="http://www.w3.org/2000/svg">
<g clip-path="url(#clip0)">
<path d="M23.8651 3.00005C22.9075 3.67552 21.8472 4.19216 20.7251 4.53005C20.1229 3.83756 19.3224 3.34674 18.4321 3.12397C17.5418 2.90121 16.6046 2.95724 15.7472 3.2845C14.8898 3.61176 14.1536 4.19445 13.6381 4.95376C13.1226 5.71308 12.8528 6.61238 12.8651 7.53005V8.53005C11.1077 8.57561 9.36639 8.18586 7.79612 7.39549C6.22586 6.60513 4.87543 5.43868 3.86511 4.00005C3.86511 4.00005 -0.134888 13 8.86511 17C6.80564 18.398 4.35227 19.099 1.86511 19C10.8651 24 21.8651 19 21.8651 7.50005C21.8642 7.2215 21.8374 6.94364 21.7851 6.67005C22.8057 5.66354 23.5259 4.39276 23.8651 3.00005V3.00005Z" stroke="white" stroke-width="2" stroke-linecap="round" stroke-linejoin="round"/>
</g>
<defs>
<clipPath id="clip0">
<rect width="24" height="24" fill="white" transform="translate(0.865112)"/>
</clipPath>
</defs>
</svg>
